<svg width="45" height="36" viewBox="0 0 45 36" fill="none" xmlns="http://www.w3.org/2000/svg">
<path d="M7.824 3.19199C8.93333 1.74133 10.0853 0.930664 11.28 0.759995C12.56 0.58933 13.6267 0.845329 14.48 1.52799C15.4187 2.12533 15.9307 3.064 16.016 4.34399C16.1867 5.53866 15.6747 6.86133 14.48 8.312C13.3707 9.67733 12.4747 11.0427 11.792 12.408C11.1947 13.688 10.768 14.968 10.512 16.248C13.2427 16.504 15.4187 17.4853 17.04 19.192C18.6613 20.8133 19.472 22.9893 19.472 25.72C19.472 28.4507 18.6187 30.712 16.912 32.504C15.2053 34.2107 12.9013 35.064 10 35.064C7.01333 35.064 4.66667 34.04 2.96 31.992C1.25333 29.944 0.4 27.0853 0.4 23.416C0.4 20.344 0.869334 17.144 1.808 13.816C2.832 10.4027 4.83733 6.86133 7.824 3.19199ZM32.784 3.19199C33.8933 1.74133 35.0453 0.930664 36.24 0.759995C37.52 0.58933 38.5867 0.845329 39.44 1.52799C40.3787 2.12533 40.8907 3.064 40.976 4.34399C41.1467 5.53866 40.6347 6.86133 39.44 8.312C38.3307 9.67733 37.4347 11.0427 36.752 12.408C36.1547 13.688 35.728 14.968 35.472 16.248C38.2027 16.504 40.3787 17.4853 42 19.192C43.6213 20.8133 44.432 22.9893 44.432 25.72C44.432 28.4507 43.5787 30.712 41.872 32.504C40.1653 34.2107 37.8613 35.064 34.96 35.064C31.9733 35.064 29.6267 34.04 27.92 31.992C26.2133 29.944 25.36 27.0853 25.36 23.416C25.36 20.344 25.8293 17.144 26.768 13.816C27.792 10.4027 29.7973 6.86133 32.784 3.19199Z" fill="#FEF9C3"/>
</svg>
