<svg width="150" height="138" viewBox="0 0 150 138" fill="none" xmlns="http://www.w3.org/2000/svg">
<path d="M64.2857 68.9127V49.2234H80.3571C86.2835 49.2234 91.0714 53.6227 91.0714 59.068C91.0714 64.5134 86.2835 68.9127 80.3571 68.9127H64.2857ZM128.571 0C140.391 0 150 8.81406 150 19.6893V118.136C150 128.996 140.391 137.825 128.571 137.825H21.4286C9.59263 137.825 0 128.996 0 118.136V19.6893C0 8.81406 9.59263 0 21.4286 0H128.571ZM112.5 59.068C112.5 42.4859 98.1027 29.534 80.3571 29.534H56.25C48.8504 29.534 42.8571 35.0409 42.8571 41.8399V98.4467C42.8571 103.892 47.6451 108.291 53.5714 108.291C59.4978 108.291 64.2857 103.892 64.2857 98.4467V88.6021H80.3571C98.1027 88.6021 112.5 75.3733 112.5 59.068Z" fill="white"/>
</svg>
