<svg width="174" height="123" viewBox="0 0 174 123" fill="none" xmlns="http://www.w3.org/2000/svg">
<path d="M86.7553 87.3182C77.1445 87.3182 69.3553 95.0989 69.3553 104.696C69.3553 114.293 77.1472 122.074 86.7553 122.074C96.3633 122.074 104.155 114.293 104.155 104.696C104.155 95.0989 96.5971 87.3182 86.7553 87.3182ZM87 43.8807C67.9007 43.8807 49.5084 50.8307 35.2078 63.4357C31.619 66.8482 31.2656 72.3322 34.4465 75.943C37.6546 79.5266 43.1465 79.8795 46.7353 76.7031C57.855 66.9025 72.1556 61.5 87 61.5C101.844 61.5 116.172 66.8971 127.265 76.7031C128.923 78.1691 130.989 78.875 133.028 78.875C135.433 78.875 137.83 77.8825 139.553 75.9403C142.734 72.3322 142.408 66.8482 138.792 63.6719C124.492 51.075 106.113 43.8807 87 43.8807ZM171.336 34.5416C148.525 12.7088 118.592 0.6875 87 0.6875C55.4081 0.6875 25.4719 12.7088 2.6763 34.5416C-0.790111 37.8673 -0.90158 43.3648 2.42141 46.8263C5.74372 50.2958 11.2492 50.3881 14.7238 47.0808C34.0115 28.1346 59.9212 18.0625 87 18.0625C114.079 18.0625 139.499 28.3708 159.264 47.0842C160.977 48.6859 163.125 49.5004 165.3 49.5004C167.585 49.5004 169.87 48.6096 171.578 46.8279C174.897 43.3648 174.788 37.6365 171.336 34.5416Z" fill="white"/>
</svg>
